<?xml version="1.0" encoding="UTF-8" standalone="no"?>
<!-- Created with Inkscape (http://www.inkscape.org/) -->

<svg
   xmlns:dc="http://purl.org/dc/elements/1.1/"
   xmlns:cc="http://creativecommons.org/ns#"
   xmlns:rdf="http://www.w3.org/1999/02/22-rdf-syntax-ns#"
   xmlns:svg="http://www.w3.org/2000/svg"
   xmlns="http://www.w3.org/2000/svg"
   xmlns:sodipodi="http://sodipodi.sourceforge.net/DTD/sodipodi-0.dtd"
   xmlns:inkscape="http://www.inkscape.org/namespaces/inkscape"
   width="1569.0798"
   height="244.64003"
   viewBox="0 0 1569.0798 244.64003"
   id="svg2"
   version="1.1"
   inkscape:version="0.91 r13725"
   sodipodi:docname="dekatrejota_L.svg"
   inkscape:export-filename="C:\Users\dell\Pictures\d4j_l.png"
   inkscape:export-xdpi="559.89697"
   inkscape:export-ydpi="559.89697">
  <title
     id="title4160">D4J Logo</title>
  <defs
     id="defs4" />
  <sodipodi:namedview
     id="base"
     pagecolor="#ffffff"
     bordercolor="#666666"
     borderopacity="1.0"
     inkscape:pageopacity="0.0"
     inkscape:pageshadow="2"
     inkscape:zoom="0.35355339"
     inkscape:cx="731.04868"
     inkscape:cy="144.11041"
     inkscape:document-units="px"
     inkscape:current-layer="layer2"
     showgrid="false"
     units="px"
     showguides="false"
     inkscape:window-width="1366"
     inkscape:window-height="705"
     inkscape:window-x="-8"
     inkscape:window-y="-8"
     inkscape:window-maximized="1"
     fit-margin-top="0"
     fit-margin-left="0"
     fit-margin-right="0"
     fit-margin-bottom="0"
     showborder="false">
    <inkscape:grid
       type="xygrid"
       id="grid4136"
       empspacing="5"
       color="#000000"
       opacity="0.1254902"
       spacingx="2"
       spacingy="2"
       dotted="false"
       originx="779.33567"
       originy="-119.7235" />
    <inkscape:grid
       type="xygrid"
       id="grid4138"
       snapvisiblegridlinesonly="true"
       spacingx="6.0000001"
       color="#ffffff"
       opacity="0"
       empcolor="#000000"
       empopacity="0.25098039"
       empspacing="5"
       dotted="true"
       spacingy="12"
       enabled="false"
       originx="779.33567"
       originy="-119.7235" />
  </sodipodi:namedview>
  <metadata
     id="metadata7">
    <rdf:RDF>
      <cc:Work
         rdf:about="">
        <dc:format>image/svg+xml</dc:format>
        <dc:type
           rdf:resource="http://purl.org/dc/dcmitype/StillImage" />
        <dc:title>D4J Logo</dc:title>
      </cc:Work>
    </rdf:RDF>
  </metadata>
  <g
     inkscape:groupmode="layer"
     id="layer2"
     inkscape:label="D"
     style="display:inline"
     transform="translate(779.33569,-135.63647)">
    <path
       style="fill:#2c62ba;fill-opacity:1;fill-rule:evenodd;stroke:none;stroke-width:1px;stroke-linecap:butt;stroke-linejoin:miter;stroke-opacity:1"
       d="m -779.33569,135.87501 0,95.89104 60.59177,59.03892 -0.59177,-59.01572 0,-36.92973 54.54451,-0.54561 23.3816,26.25109 -0.0483,63.51119 -25.56302,28.03059 -46.90455,0.41765 -5.41023,0.10826 -59.95062,0 0,63.24231 66.97581,-0.32286 68.61873,0.89226 55.26961,-61.16504 -0.11491,-28.61719 0.33583,-94.7836 -52.23347,-55.29506 -78.96638,-0.44465 -59.9346,-0.26385 0,0"
       id="path4158"
       inkscape:connector-curvature="0"
       sodipodi:nodetypes="cccccccccccccccccccccc" />
    <path
       style="opacity:0.99640288;fill:#2c62ba;fill-opacity:1;stroke:#000000;stroke-width:0;stroke-linecap:round;stroke-linejoin:miter;stroke-miterlimit:4;stroke-dasharray:none;stroke-opacity:0.55294118"
       d="m -580.36824,135.63647 61.5183,0 0,243.24474 -61.5183,0 z"
       id="rect4153"
       inkscape:connector-curvature="0"
       sodipodi:nodetypes="ccccc" />
    <path
       style="opacity:0.99640288;fill:#2c62ba;fill-opacity:1;stroke:#000000;stroke-width:0;stroke-linecap:round;stroke-linejoin:miter;stroke-miterlimit:4;stroke-dasharray:none;stroke-opacity:0.55294118"
       d="m -512.53943,194.91598 0,41.26179 -0.17153,50.49054 121.6226,0 -1.17185,21.37374 -23.57716,17.68838 -96.87393,0 0,53.03321 126.57268,0 45.25349,-39.95153 0,-52.49756 -0.35221,-54.05873 -120.20838,0.88649 0.35356,-21.25075 21.2132,-16.97558 98.2868,0 0,-53.0332 -120.91399,0 z"
       id="rect4155"
       inkscape:connector-curvature="0"
       sodipodi:nodetypes="ccccccccccccccccccc" />
    <path
       style="display:inline;opacity:0.99640288;fill:#2c62ba;fill-opacity:1;stroke:#000000;stroke-width:0;stroke-linecap:round;stroke-linejoin:miter;stroke-miterlimit:4;stroke-dasharray:none;stroke-opacity:0.55294118"
       d="m -334.25582,194.77055 0,124.24249 51.44727,59.6053 120.56166,0 -0.35463,-60.37696 -95.39823,0 -19.8088,-23.62353 0,-68.3473 24.40665,-24.5 90.09335,0 0,-60.03321 -116.61151,0 z"
       id="rect4155-3"
       inkscape:connector-curvature="0"
       sodipodi:nodetypes="ccccccccccccc" />
    <path
       style="display:inline;opacity:0.99640288;fill:#2c62ba;fill-opacity:1;stroke:#000000;stroke-width:0;stroke-linecap:round;stroke-linejoin:miter;stroke-miterlimit:4;stroke-dasharray:none;stroke-opacity:0.55294118"
       d="m -152.70999,194.36325 -1.41421,137.56453 48.44727,46.28312 75.638989,0 44.711449,-47.27959 0.801942,-136.50398 -48.599177,-53.09729 -71.000003,0 z m 50.49437,24.96482 16.316669,-18.56154 35.414942,0 15.965097,17.54288 0,82.81201 -15.51167,14.74993 -38.471829,0 -13.713209,-12.49992 z"
       id="rect4155-3-1"
       inkscape:connector-curvature="0"
       sodipodi:nodetypes="cccccccccccccccccc" />
    <path
       style="display:inline;opacity:0.99640288;fill:#2c62ba;fill-opacity:1;stroke:#000000;stroke-width:0;stroke-linecap:round;stroke-linejoin:miter;stroke-miterlimit:4;stroke-dasharray:none;stroke-opacity:0.55294118"
       d="m 23.090639,142.34762 -0.73242,236.88086 53.67383,0 -0.2832,-69.98872 26.670971,0 61.93413,70.41841 60.21567,-0.14649 -62.83452,-70.27192 38.61726,0 0,-120.57645 -44.72839,-46.31569 z m 57.82727,48.22901 38.997181,-0.35356 15.99578,15.90991 13.43503,14.59222 -0.35355,37.96715 -68.074441,0 z"
       id="rect4155-1"
       inkscape:connector-curvature="0"
       sodipodi:nodetypes="ccccccccccccccccccc" />
    <path
       style="display:inline;fill:#2c62ba;fill-opacity:1;fill-rule:evenodd;stroke:none;stroke-width:1px;stroke-linecap:butt;stroke-linejoin:miter;stroke-opacity:1"
       d="m 209.54685,139.26808 0,169.51351 60.59177,-0.35804 -0.59177,-73.24123 0,-36.92973 54.54451,-0.54561 23.3816,26.25109 -0.0483,63.51119 -25.56302,28.03059 -46.90455,0.41765 -5.41023,0.10826 -91.4481,0 55.15433,63.24231 43.31896,-0.32286 68.61873,0.89226 55.26961,-61.16504 -0.11491,-28.61719 0.33583,-94.7836 -52.23347,-55.29506 -78.96638,-0.44465 -59.9346,-0.26385 0,0"
       id="path4158-8"
       inkscape:connector-curvature="0"
       sodipodi:nodetypes="cccccccccccccccccccccc" />
  </g>
  <g
     inkscape:groupmode="layer"
     id="layer3"
     inkscape:label="4"
     transform="translate(779.33569,-135.63647)"
     sodipodi:insensitive="true">
    <path
       style="fill:#dd1d26;fill-opacity:1;fill-rule:evenodd;stroke:none;stroke-width:1px;stroke-linecap:butt;stroke-linejoin:miter;stroke-opacity:1"
       d="m 405.67,260 0,60 141.07156,0 0,60 53.44954,0 0,-60 -0.20357,0 -1.54184,-121.75549 -50.72038,50.53193 0.72991,11.22356 -77.15715,0 46.55997,-69.3344 30.56276,0 50.73141,-50.66559 -112.44294,0 z"
       id="path4163"
       inkscape:connector-curvature="0"
       sodipodi:nodetypes="cccccccccccccccc" />
  </g>
  <g
     inkscape:groupmode="layer"
     id="layer4"
     inkscape:label="JTri"
     sodipodi:insensitive="true"
     transform="translate(779.33569,-135.63647)">
    <g
       id="g4189">
      <path
         sodipodi:nodetypes="cccc"
         inkscape:connector-curvature="0"
         id="path4166"
         d="M 599.97209,260 630.04018,290.06809 599.97209,320 l 0,-60"
         style="fill:#dd5f1d;fill-opacity:1;fill-rule:evenodd;stroke:none;stroke-width:1px;stroke-linecap:butt;stroke-linejoin:miter;stroke-opacity:1" />
      <path
         inkscape:connector-curvature="0"
         id="path4184"
         d="m 629.97209,290 30,30 -60,0 z"
         style="fill:#dd911d;fill-opacity:1;fill-rule:evenodd;stroke:none;stroke-width:1px;stroke-linecap:butt;stroke-linejoin:miter;stroke-opacity:1" />
    </g>
  </g>
  <g
     inkscape:groupmode="layer"
     id="layer5"
     inkscape:label="J"
     transform="translate(779.33569,-135.63647)"
     sodipodi:insensitive="true">
    <path
       style="fill:#ebcb1c;fill-opacity:1;fill-rule:evenodd;stroke:none;stroke-width:1px;stroke-linecap:butt;stroke-linejoin:miter;stroke-opacity:1"
       d="m 600,319.79736 0.11121,60.47913 63.32084,-0.27649 68.77985,0 31.98545,-32.42478 25.5468,-27.33417 0,-180.24104 -100,0 40,40 0,139.79735 z"
       id="path4193"
       inkscape:connector-curvature="0"
       sodipodi:nodetypes="ccccccccccc" />
  </g>
</svg>
