<?xml version="1.0" encoding="UTF-8"?>
<svg width="416" height="416" enable-background="new" version="1.1" viewBox="0 0 110.06666 110.06667" xmlns="http://www.w3.org/2000/svg" xmlns:cc="http://creativecommons.org/ns#" xmlns:dc="http://purl.org/dc/elements/1.1/" xmlns:rdf="http://www.w3.org/1999/02/22-rdf-syntax-ns#"><metadata><rdf:RDF><cc:Work rdf:about=""><dc:format>image/svg+xml</dc:format><dc:type rdf:resource="http://purl.org/dc/dcmitype/StillImage"/><dc:title/></cc:Work></rdf:RDF></metadata><g><circle id="bg" cx="55.033" cy="55.033" r="55.033" fill="#7289da" stroke-width=".28672"/></g><g><path id="shdw" transform="scale(.26458)" d="m250.29 82l-34.604 37.383-22.883-22.883-55.137 35.5 15.506 15.506-36.736 165.85 102.27 102.27a208 208 0 0 0 196.57 -193.28l-53.246-53.25-36.744-12.096-75-75z" fill="#6273b1"/></g><g><g id="d4jcup"><g id="steam" fill="#f89820" stroke-width="1.1171"><path transform="scale(.26458)" d="m158.16 96.5-20.496 35.5h34.641l20.496-35.5z"/><path transform="scale(.26458)" d="m215.65 82-28.867 50h34.641l28.869-50z"/></g><path id="d" class="st0" d="m86.011 41.251h-12.193v13.808l8.1161 7.3449v-13.404h4.3702c2.7543 0 4.1131 1.3588 4.1131 3.4888v10.246c0 2.13-1.2854 3.5623-4.1131 3.5623h-12.486v7.7856h12.193c6.5369 0.03678 12.67-3.2318 12.67-10.797v-11.054c0-7.6387-6.133-10.981-12.67-10.981z" fill="#fff" stroke-width=".36724"/><path id="cup" transform="scale(.26458)" d="m101.98 141v134.05c0 38.468 29.269 55.089 60.465 54.902h49.221c31.196 0.18701 60.465-16.434 60.465-54.902v-134.05z" fill="#fff" stroke-width="1.8091"/></g></g><style>.st0{fill:#FFFFFF;}</style></svg>
